<mxfile host="app.diagrams.net" agent="Mozilla/5.0 (Windows NT 10.0; Win64; x64) AppleWebKit/537.36 (KHTML, like Gecko) Chrome/130.0.0.0 Safari/537.36 Edg/130.0.0.0" version="24.8.4">
  <diagram name="Page-1" id="nV7cG5uZQ1MvYhkrVqQo">
    <mxGraphModel dx="1042" dy="565" grid="1" gridSize="10" guides="1" tooltips="1" connect="1" arrows="1" fold="1" page="1" pageScale="1" pageWidth="1600" pageHeight="900" math="0" shadow="0">
      <root>
        <mxCell id="0" />
        <mxCell id="1" parent="0" />
        <mxCell id="z51_tEKx2tMQwIwz9-nR-1" value="" style="endArrow=none;html=1;rounded=0;" parent="1" edge="1">
          <mxGeometry width="50" height="50" relative="1" as="geometry">
            <mxPoint x="39" y="900" as="sourcePoint" />
            <mxPoint x="39" as="targetPoint" />
          </mxGeometry>
        </mxCell>
        <mxCell id="z51_tEKx2tMQwIwz9-nR-2" value="" style="endArrow=none;html=1;rounded=0;" parent="1" edge="1">
          <mxGeometry width="50" height="50" relative="1" as="geometry">
            <mxPoint x="40" as="sourcePoint" />
            <mxPoint x="1600" as="targetPoint" />
          </mxGeometry>
        </mxCell>
        <mxCell id="z51_tEKx2tMQwIwz9-nR-3" value="" style="endArrow=none;html=1;rounded=0;" parent="1" edge="1">
          <mxGeometry width="50" height="50" relative="1" as="geometry">
            <mxPoint x="40" y="900" as="sourcePoint" />
            <mxPoint x="1600" y="900" as="targetPoint" />
          </mxGeometry>
        </mxCell>
        <mxCell id="z51_tEKx2tMQwIwz9-nR-4" value="" style="endArrow=none;html=1;rounded=0;" parent="1" edge="1">
          <mxGeometry width="50" height="50" relative="1" as="geometry">
            <mxPoint x="1599" y="900" as="sourcePoint" />
            <mxPoint x="1599" as="targetPoint" />
          </mxGeometry>
        </mxCell>
        <mxCell id="z51_tEKx2tMQwIwz9-nR-8" value="" style="endArrow=none;html=1;rounded=0;" parent="1" edge="1">
          <mxGeometry width="50" height="50" relative="1" as="geometry">
            <mxPoint x="516" y="900" as="sourcePoint" />
            <mxPoint x="516" as="targetPoint" />
          </mxGeometry>
        </mxCell>
        <mxCell id="z51_tEKx2tMQwIwz9-nR-10" value="" style="endArrow=none;html=1;rounded=0;" parent="1" edge="1">
          <mxGeometry width="50" height="50" relative="1" as="geometry">
            <mxPoint x="532" y="900" as="sourcePoint" />
            <mxPoint x="532" as="targetPoint" />
          </mxGeometry>
        </mxCell>
        <mxCell id="z51_tEKx2tMQwIwz9-nR-11" value="" style="endArrow=none;html=1;rounded=0;" parent="1" edge="1">
          <mxGeometry width="50" height="50" relative="1" as="geometry">
            <mxPoint x="1416" y="37" as="sourcePoint" />
            <mxPoint x="1600" y="37" as="targetPoint" />
          </mxGeometry>
        </mxCell>
        <mxCell id="z51_tEKx2tMQwIwz9-nR-12" value="" style="endArrow=none;html=1;rounded=0;" parent="1" edge="1">
          <mxGeometry width="50" height="50" relative="1" as="geometry">
            <mxPoint x="1416" y="900" as="sourcePoint" />
            <mxPoint x="1416" as="targetPoint" />
          </mxGeometry>
        </mxCell>
        <mxCell id="z51_tEKx2tMQwIwz9-nR-13" value="" style="endArrow=none;html=1;rounded=0;" parent="1" edge="1">
          <mxGeometry width="50" height="50" relative="1" as="geometry">
            <mxPoint x="1400" y="900" as="sourcePoint" />
            <mxPoint x="1400" as="targetPoint" />
          </mxGeometry>
        </mxCell>
        <mxCell id="z51_tEKx2tMQwIwz9-nR-14" value="Lorem" style="rounded=1;whiteSpace=wrap;html=1;" parent="1" vertex="1">
          <mxGeometry x="133" y="15" width="290" height="30" as="geometry" />
        </mxCell>
        <mxCell id="z51_tEKx2tMQwIwz9-nR-15" value="&lt;div&gt;Lorem&lt;/div&gt;" style="rounded=1;whiteSpace=wrap;html=1;" parent="1" vertex="1">
          <mxGeometry x="40" y="58" width="475" height="42" as="geometry" />
        </mxCell>
        <mxCell id="z51_tEKx2tMQwIwz9-nR-17" value="Lorem" style="text;html=1;align=center;verticalAlign=middle;whiteSpace=wrap;rounded=0;" parent="1" vertex="1">
          <mxGeometry x="248" y="78" width="60" height="30" as="geometry" />
        </mxCell>
        <mxCell id="z51_tEKx2tMQwIwz9-nR-18" value="" style="endArrow=none;html=1;rounded=0;edgeStyle=orthogonalEdgeStyle;curved=1;" parent="1" edge="1">
          <mxGeometry width="50" height="50" relative="1" as="geometry">
            <mxPoint x="40" y="706" as="sourcePoint" />
            <mxPoint x="510" y="706" as="targetPoint" />
            <Array as="points">
              <mxPoint x="40" y="676" />
              <mxPoint x="270" y="676" />
              <mxPoint x="270" y="716" />
              <mxPoint x="510" y="716" />
            </Array>
          </mxGeometry>
        </mxCell>
        <mxCell id="z51_tEKx2tMQwIwz9-nR-20" value="" style="endArrow=none;html=1;rounded=0;" parent="1" edge="1">
          <mxGeometry width="50" height="50" relative="1" as="geometry">
            <mxPoint x="532" y="64" as="sourcePoint" />
            <mxPoint x="1400" y="64" as="targetPoint" />
          </mxGeometry>
        </mxCell>
        <mxCell id="z51_tEKx2tMQwIwz9-nR-22" value="img" style="ellipse;whiteSpace=wrap;html=1;aspect=fixed;" parent="1" vertex="1">
          <mxGeometry x="133" y="270" width="310" height="310" as="geometry" />
        </mxCell>
        <mxCell id="z51_tEKx2tMQwIwz9-nR-24" value="" style="endArrow=none;html=1;rounded=0;" parent="1" edge="1">
          <mxGeometry width="50" height="50" relative="1" as="geometry">
            <mxPoint x="532" y="30" as="sourcePoint" />
            <mxPoint x="640" y="30" as="targetPoint" />
          </mxGeometry>
        </mxCell>
        <mxCell id="z51_tEKx2tMQwIwz9-nR-25" value="" style="endArrow=none;html=1;rounded=0;" parent="1" edge="1">
          <mxGeometry width="50" height="50" relative="1" as="geometry">
            <mxPoint x="640" y="67" as="sourcePoint" />
            <mxPoint x="640" y="30" as="targetPoint" />
          </mxGeometry>
        </mxCell>
        <mxCell id="z51_tEKx2tMQwIwz9-nR-28" value="Lorem" style="text;html=1;align=center;verticalAlign=middle;whiteSpace=wrap;rounded=0;" parent="1" vertex="1">
          <mxGeometry x="770" y="35" width="60" height="30" as="geometry" />
        </mxCell>
        <mxCell id="z51_tEKx2tMQwIwz9-nR-29" value="Lorem" style="text;html=1;align=center;verticalAlign=middle;whiteSpace=wrap;rounded=0;" parent="1" vertex="1">
          <mxGeometry x="550" y="30" width="60" height="30" as="geometry" />
        </mxCell>
        <mxCell id="56uRjDUYUihqAm2y53DY-36" value="Lorem" style="text;html=1;align=center;verticalAlign=middle;whiteSpace=wrap;rounded=0;" parent="1" vertex="1">
          <mxGeometry x="1480" y="3" width="60" height="30" as="geometry" />
        </mxCell>
        <mxCell id="RWaJZ54p94rQK6l7ZbVJ-1" value="img" style="rounded=0;whiteSpace=wrap;html=1;" parent="1" vertex="1">
          <mxGeometry x="533" y="65" width="867" height="128" as="geometry" />
        </mxCell>
        <mxCell id="RWaJZ54p94rQK6l7ZbVJ-2" value="img" style="rounded=0;whiteSpace=wrap;html=1;" parent="1" vertex="1">
          <mxGeometry x="532.6" y="194" width="867" height="128" as="geometry" />
        </mxCell>
        <mxCell id="RWaJZ54p94rQK6l7ZbVJ-3" value="img" style="rounded=0;whiteSpace=wrap;html=1;" parent="1" vertex="1">
          <mxGeometry x="532.6" y="323" width="867" height="128" as="geometry" />
        </mxCell>
        <mxCell id="RWaJZ54p94rQK6l7ZbVJ-4" value="img" style="rounded=0;whiteSpace=wrap;html=1;" parent="1" vertex="1">
          <mxGeometry x="532.6" y="452" width="867" height="128" as="geometry" />
        </mxCell>
        <mxCell id="RWaJZ54p94rQK6l7ZbVJ-5" value="img" style="rounded=0;whiteSpace=wrap;html=1;" parent="1" vertex="1">
          <mxGeometry x="533" y="580" width="867" height="128" as="geometry" />
        </mxCell>
        <mxCell id="RWaJZ54p94rQK6l7ZbVJ-6" value="img" style="rounded=0;whiteSpace=wrap;html=1;" parent="1" vertex="1">
          <mxGeometry x="532.6" y="709" width="867" height="128" as="geometry" />
        </mxCell>
        <mxCell id="6HqGeL1BHz_Gl90MD1Bw-4" value="Lorem" style="text;html=1;align=center;verticalAlign=middle;whiteSpace=wrap;rounded=0;" parent="1" vertex="1">
          <mxGeometry x="670" y="33" width="60" height="30" as="geometry" />
        </mxCell>
        <mxCell id="6HqGeL1BHz_Gl90MD1Bw-5" value="" style="endArrow=none;html=1;rounded=0;" parent="1" edge="1">
          <mxGeometry width="50" height="50" relative="1" as="geometry">
            <mxPoint x="640" y="30" as="sourcePoint" />
            <mxPoint x="748" y="30" as="targetPoint" />
          </mxGeometry>
        </mxCell>
        <mxCell id="6HqGeL1BHz_Gl90MD1Bw-6" value="" style="endArrow=none;html=1;rounded=0;" parent="1" edge="1">
          <mxGeometry width="50" height="50" relative="1" as="geometry">
            <mxPoint x="746" y="30" as="sourcePoint" />
            <mxPoint x="850" y="30" as="targetPoint" />
          </mxGeometry>
        </mxCell>
        <mxCell id="6HqGeL1BHz_Gl90MD1Bw-8" value="" style="endArrow=none;html=1;rounded=0;" parent="1" edge="1">
          <mxGeometry width="50" height="50" relative="1" as="geometry">
            <mxPoint x="850" y="66.5" as="sourcePoint" />
            <mxPoint x="850" y="29.5" as="targetPoint" />
          </mxGeometry>
        </mxCell>
        <mxCell id="6HqGeL1BHz_Gl90MD1Bw-9" value="" style="endArrow=none;html=1;rounded=0;" parent="1" edge="1">
          <mxGeometry width="50" height="50" relative="1" as="geometry">
            <mxPoint x="740" y="66.5" as="sourcePoint" />
            <mxPoint x="740" y="30" as="targetPoint" />
          </mxGeometry>
        </mxCell>
        <mxCell id="6HqGeL1BHz_Gl90MD1Bw-275" value="" style="rounded=0;whiteSpace=wrap;html=1;" parent="1" vertex="1">
          <mxGeometry x="1417" y="120" width="30" height="30" as="geometry" />
        </mxCell>
        <mxCell id="6HqGeL1BHz_Gl90MD1Bw-277" value="" style="endArrow=none;html=1;rounded=0;strokeWidth=3;" parent="1" edge="1">
          <mxGeometry width="50" height="50" relative="1" as="geometry">
            <mxPoint x="1415" y="150" as="sourcePoint" />
            <mxPoint x="1599" y="150" as="targetPoint" />
          </mxGeometry>
        </mxCell>
        <mxCell id="6HqGeL1BHz_Gl90MD1Bw-278" value="" style="endArrow=none;html=1;rounded=0;" parent="1" edge="1">
          <mxGeometry width="50" height="50" relative="1" as="geometry">
            <mxPoint x="1416" y="150" as="sourcePoint" />
            <mxPoint x="1600" y="150" as="targetPoint" />
          </mxGeometry>
        </mxCell>
        <mxCell id="6HqGeL1BHz_Gl90MD1Bw-279" value="" style="rounded=0;whiteSpace=wrap;html=1;" parent="1" vertex="1">
          <mxGeometry x="1415" y="151" width="184" height="48" as="geometry" />
        </mxCell>
        <mxCell id="6HqGeL1BHz_Gl90MD1Bw-280" value="img" style="rounded=0;whiteSpace=wrap;html=1;" parent="1" vertex="1">
          <mxGeometry x="1416" y="151" width="47" height="47" as="geometry" />
        </mxCell>
        <mxCell id="6HqGeL1BHz_Gl90MD1Bw-281" value="Lorem" style="text;html=1;align=center;verticalAlign=middle;whiteSpace=wrap;rounded=0;" parent="1" vertex="1">
          <mxGeometry x="1463" y="151" width="60" height="30" as="geometry" />
        </mxCell>
        <mxCell id="6HqGeL1BHz_Gl90MD1Bw-282" value="&lt;font style=&quot;font-size: 10px;&quot;&gt;img&lt;/font&gt;" style="rounded=0;whiteSpace=wrap;html=1;" parent="1" vertex="1">
          <mxGeometry x="1467" y="179" width="23" height="19" as="geometry" />
        </mxCell>
        <mxCell id="6HqGeL1BHz_Gl90MD1Bw-283" value="&lt;font style=&quot;font-size: 10px;&quot;&gt;Lorem&lt;/font&gt;" style="text;html=1;align=center;verticalAlign=middle;whiteSpace=wrap;rounded=0;" parent="1" vertex="1">
          <mxGeometry x="1484" y="177" width="46" height="22" as="geometry" />
        </mxCell>
        <mxCell id="6HqGeL1BHz_Gl90MD1Bw-284" value="Lorem" style="text;html=1;align=center;verticalAlign=middle;whiteSpace=wrap;rounded=0;" parent="1" vertex="1">
          <mxGeometry x="1539" y="160" width="60" height="30" as="geometry" />
        </mxCell>
        <mxCell id="6HqGeL1BHz_Gl90MD1Bw-285" value="" style="endArrow=none;html=1;rounded=0;" parent="1" edge="1">
          <mxGeometry width="50" height="50" relative="1" as="geometry">
            <mxPoint x="1415" y="200" as="sourcePoint" />
            <mxPoint x="1599" y="200" as="targetPoint" />
          </mxGeometry>
        </mxCell>
        <mxCell id="6HqGeL1BHz_Gl90MD1Bw-286" value="" style="rounded=0;whiteSpace=wrap;html=1;" parent="1" vertex="1">
          <mxGeometry x="1415" y="201" width="184" height="48" as="geometry" />
        </mxCell>
        <mxCell id="6HqGeL1BHz_Gl90MD1Bw-287" value="img" style="rounded=0;whiteSpace=wrap;html=1;" parent="1" vertex="1">
          <mxGeometry x="1416" y="201" width="47" height="47" as="geometry" />
        </mxCell>
        <mxCell id="6HqGeL1BHz_Gl90MD1Bw-288" value="Lorem" style="text;html=1;align=center;verticalAlign=middle;whiteSpace=wrap;rounded=0;" parent="1" vertex="1">
          <mxGeometry x="1463" y="201" width="60" height="30" as="geometry" />
        </mxCell>
        <mxCell id="6HqGeL1BHz_Gl90MD1Bw-289" value="&lt;font style=&quot;font-size: 10px;&quot;&gt;img&lt;/font&gt;" style="rounded=0;whiteSpace=wrap;html=1;" parent="1" vertex="1">
          <mxGeometry x="1467" y="229" width="23" height="19" as="geometry" />
        </mxCell>
        <mxCell id="6HqGeL1BHz_Gl90MD1Bw-290" value="&lt;font style=&quot;font-size: 10px;&quot;&gt;Lorem&lt;/font&gt;" style="text;html=1;align=center;verticalAlign=middle;whiteSpace=wrap;rounded=0;" parent="1" vertex="1">
          <mxGeometry x="1484" y="227" width="46" height="22" as="geometry" />
        </mxCell>
        <mxCell id="6HqGeL1BHz_Gl90MD1Bw-291" value="Lorem" style="text;html=1;align=center;verticalAlign=middle;whiteSpace=wrap;rounded=0;" parent="1" vertex="1">
          <mxGeometry x="1539" y="210" width="60" height="30" as="geometry" />
        </mxCell>
        <mxCell id="6HqGeL1BHz_Gl90MD1Bw-292" value="" style="endArrow=none;html=1;rounded=0;" parent="1" edge="1">
          <mxGeometry width="50" height="50" relative="1" as="geometry">
            <mxPoint x="1415" y="250" as="sourcePoint" />
            <mxPoint x="1599" y="250" as="targetPoint" />
          </mxGeometry>
        </mxCell>
        <mxCell id="6HqGeL1BHz_Gl90MD1Bw-293" value="" style="rounded=0;whiteSpace=wrap;html=1;" parent="1" vertex="1">
          <mxGeometry x="1415" y="251" width="184" height="48" as="geometry" />
        </mxCell>
        <mxCell id="6HqGeL1BHz_Gl90MD1Bw-294" value="img" style="rounded=0;whiteSpace=wrap;html=1;" parent="1" vertex="1">
          <mxGeometry x="1416" y="251" width="47" height="47" as="geometry" />
        </mxCell>
        <mxCell id="6HqGeL1BHz_Gl90MD1Bw-295" value="Lorem" style="text;html=1;align=center;verticalAlign=middle;whiteSpace=wrap;rounded=0;" parent="1" vertex="1">
          <mxGeometry x="1463" y="251" width="60" height="30" as="geometry" />
        </mxCell>
        <mxCell id="6HqGeL1BHz_Gl90MD1Bw-296" value="&lt;font style=&quot;font-size: 10px;&quot;&gt;img&lt;/font&gt;" style="rounded=0;whiteSpace=wrap;html=1;" parent="1" vertex="1">
          <mxGeometry x="1467" y="279" width="23" height="19" as="geometry" />
        </mxCell>
        <mxCell id="6HqGeL1BHz_Gl90MD1Bw-297" value="&lt;font style=&quot;font-size: 10px;&quot;&gt;Lorem&lt;/font&gt;" style="text;html=1;align=center;verticalAlign=middle;whiteSpace=wrap;rounded=0;" parent="1" vertex="1">
          <mxGeometry x="1484" y="277" width="46" height="22" as="geometry" />
        </mxCell>
        <mxCell id="6HqGeL1BHz_Gl90MD1Bw-298" value="Lorem" style="text;html=1;align=center;verticalAlign=middle;whiteSpace=wrap;rounded=0;" parent="1" vertex="1">
          <mxGeometry x="1539" y="260" width="60" height="30" as="geometry" />
        </mxCell>
        <mxCell id="6HqGeL1BHz_Gl90MD1Bw-299" value="" style="endArrow=none;html=1;rounded=0;" parent="1" edge="1">
          <mxGeometry width="50" height="50" relative="1" as="geometry">
            <mxPoint x="1415" y="299" as="sourcePoint" />
            <mxPoint x="1599" y="299" as="targetPoint" />
          </mxGeometry>
        </mxCell>
        <mxCell id="6HqGeL1BHz_Gl90MD1Bw-300" value="" style="rounded=0;whiteSpace=wrap;html=1;" parent="1" vertex="1">
          <mxGeometry x="1415" y="300" width="184" height="48" as="geometry" />
        </mxCell>
        <mxCell id="6HqGeL1BHz_Gl90MD1Bw-301" value="img" style="rounded=0;whiteSpace=wrap;html=1;" parent="1" vertex="1">
          <mxGeometry x="1416" y="300" width="47" height="47" as="geometry" />
        </mxCell>
        <mxCell id="6HqGeL1BHz_Gl90MD1Bw-302" value="Lorem" style="text;html=1;align=center;verticalAlign=middle;whiteSpace=wrap;rounded=0;" parent="1" vertex="1">
          <mxGeometry x="1463" y="300" width="60" height="30" as="geometry" />
        </mxCell>
        <mxCell id="6HqGeL1BHz_Gl90MD1Bw-303" value="&lt;font style=&quot;font-size: 10px;&quot;&gt;img&lt;/font&gt;" style="rounded=0;whiteSpace=wrap;html=1;" parent="1" vertex="1">
          <mxGeometry x="1467" y="328" width="23" height="19" as="geometry" />
        </mxCell>
        <mxCell id="6HqGeL1BHz_Gl90MD1Bw-304" value="&lt;font style=&quot;font-size: 10px;&quot;&gt;Lorem&lt;/font&gt;" style="text;html=1;align=center;verticalAlign=middle;whiteSpace=wrap;rounded=0;" parent="1" vertex="1">
          <mxGeometry x="1484" y="326" width="46" height="22" as="geometry" />
        </mxCell>
        <mxCell id="6HqGeL1BHz_Gl90MD1Bw-305" value="Lorem" style="text;html=1;align=center;verticalAlign=middle;whiteSpace=wrap;rounded=0;" parent="1" vertex="1">
          <mxGeometry x="1539" y="309" width="60" height="30" as="geometry" />
        </mxCell>
        <mxCell id="6HqGeL1BHz_Gl90MD1Bw-306" value="" style="endArrow=none;html=1;rounded=0;" parent="1" edge="1">
          <mxGeometry width="50" height="50" relative="1" as="geometry">
            <mxPoint x="1415" y="349" as="sourcePoint" />
            <mxPoint x="1599" y="349" as="targetPoint" />
          </mxGeometry>
        </mxCell>
        <mxCell id="6HqGeL1BHz_Gl90MD1Bw-307" value="" style="rounded=0;whiteSpace=wrap;html=1;" parent="1" vertex="1">
          <mxGeometry x="1415" y="350" width="184" height="48" as="geometry" />
        </mxCell>
        <mxCell id="6HqGeL1BHz_Gl90MD1Bw-308" value="img" style="rounded=0;whiteSpace=wrap;html=1;" parent="1" vertex="1">
          <mxGeometry x="1416" y="350" width="47" height="47" as="geometry" />
        </mxCell>
        <mxCell id="6HqGeL1BHz_Gl90MD1Bw-309" value="Lorem" style="text;html=1;align=center;verticalAlign=middle;whiteSpace=wrap;rounded=0;" parent="1" vertex="1">
          <mxGeometry x="1463" y="350" width="60" height="30" as="geometry" />
        </mxCell>
        <mxCell id="6HqGeL1BHz_Gl90MD1Bw-310" value="&lt;font style=&quot;font-size: 10px;&quot;&gt;img&lt;/font&gt;" style="rounded=0;whiteSpace=wrap;html=1;" parent="1" vertex="1">
          <mxGeometry x="1467" y="378" width="23" height="19" as="geometry" />
        </mxCell>
        <mxCell id="6HqGeL1BHz_Gl90MD1Bw-311" value="&lt;font style=&quot;font-size: 10px;&quot;&gt;Lorem&lt;/font&gt;" style="text;html=1;align=center;verticalAlign=middle;whiteSpace=wrap;rounded=0;" parent="1" vertex="1">
          <mxGeometry x="1484" y="376" width="46" height="22" as="geometry" />
        </mxCell>
        <mxCell id="6HqGeL1BHz_Gl90MD1Bw-312" value="Lorem" style="text;html=1;align=center;verticalAlign=middle;whiteSpace=wrap;rounded=0;" parent="1" vertex="1">
          <mxGeometry x="1539" y="359" width="60" height="30" as="geometry" />
        </mxCell>
        <mxCell id="6HqGeL1BHz_Gl90MD1Bw-313" value="" style="endArrow=none;html=1;rounded=0;" parent="1" edge="1">
          <mxGeometry width="50" height="50" relative="1" as="geometry">
            <mxPoint x="1415" y="399" as="sourcePoint" />
            <mxPoint x="1599" y="399" as="targetPoint" />
          </mxGeometry>
        </mxCell>
        <mxCell id="6HqGeL1BHz_Gl90MD1Bw-314" value="" style="rounded=0;whiteSpace=wrap;html=1;" parent="1" vertex="1">
          <mxGeometry x="1415" y="400" width="184" height="48" as="geometry" />
        </mxCell>
        <mxCell id="6HqGeL1BHz_Gl90MD1Bw-315" value="img" style="rounded=0;whiteSpace=wrap;html=1;" parent="1" vertex="1">
          <mxGeometry x="1416" y="400" width="47" height="47" as="geometry" />
        </mxCell>
        <mxCell id="6HqGeL1BHz_Gl90MD1Bw-316" value="Lorem" style="text;html=1;align=center;verticalAlign=middle;whiteSpace=wrap;rounded=0;" parent="1" vertex="1">
          <mxGeometry x="1463" y="400" width="60" height="30" as="geometry" />
        </mxCell>
        <mxCell id="6HqGeL1BHz_Gl90MD1Bw-317" value="&lt;font style=&quot;font-size: 10px;&quot;&gt;img&lt;/font&gt;" style="rounded=0;whiteSpace=wrap;html=1;" parent="1" vertex="1">
          <mxGeometry x="1467" y="428" width="23" height="19" as="geometry" />
        </mxCell>
        <mxCell id="6HqGeL1BHz_Gl90MD1Bw-318" value="&lt;font style=&quot;font-size: 10px;&quot;&gt;Lorem&lt;/font&gt;" style="text;html=1;align=center;verticalAlign=middle;whiteSpace=wrap;rounded=0;" parent="1" vertex="1">
          <mxGeometry x="1484" y="426" width="46" height="22" as="geometry" />
        </mxCell>
        <mxCell id="6HqGeL1BHz_Gl90MD1Bw-319" value="Lorem" style="text;html=1;align=center;verticalAlign=middle;whiteSpace=wrap;rounded=0;" parent="1" vertex="1">
          <mxGeometry x="1539" y="409" width="60" height="30" as="geometry" />
        </mxCell>
        <mxCell id="6HqGeL1BHz_Gl90MD1Bw-320" value="" style="endArrow=none;html=1;rounded=0;" parent="1" edge="1">
          <mxGeometry width="50" height="50" relative="1" as="geometry">
            <mxPoint x="1415" y="449" as="sourcePoint" />
            <mxPoint x="1599" y="449" as="targetPoint" />
          </mxGeometry>
        </mxCell>
        <mxCell id="6HqGeL1BHz_Gl90MD1Bw-321" value="" style="rounded=0;whiteSpace=wrap;html=1;" parent="1" vertex="1">
          <mxGeometry x="1415" y="450" width="184" height="48" as="geometry" />
        </mxCell>
        <mxCell id="6HqGeL1BHz_Gl90MD1Bw-322" value="img" style="rounded=0;whiteSpace=wrap;html=1;" parent="1" vertex="1">
          <mxGeometry x="1416" y="450" width="47" height="47" as="geometry" />
        </mxCell>
        <mxCell id="6HqGeL1BHz_Gl90MD1Bw-323" value="Lorem" style="text;html=1;align=center;verticalAlign=middle;whiteSpace=wrap;rounded=0;" parent="1" vertex="1">
          <mxGeometry x="1463" y="450" width="60" height="30" as="geometry" />
        </mxCell>
        <mxCell id="6HqGeL1BHz_Gl90MD1Bw-324" value="&lt;font style=&quot;font-size: 10px;&quot;&gt;img&lt;/font&gt;" style="rounded=0;whiteSpace=wrap;html=1;" parent="1" vertex="1">
          <mxGeometry x="1467" y="478" width="23" height="19" as="geometry" />
        </mxCell>
        <mxCell id="6HqGeL1BHz_Gl90MD1Bw-325" value="&lt;font style=&quot;font-size: 10px;&quot;&gt;Lorem&lt;/font&gt;" style="text;html=1;align=center;verticalAlign=middle;whiteSpace=wrap;rounded=0;" parent="1" vertex="1">
          <mxGeometry x="1484" y="476" width="46" height="22" as="geometry" />
        </mxCell>
        <mxCell id="6HqGeL1BHz_Gl90MD1Bw-326" value="Lorem" style="text;html=1;align=center;verticalAlign=middle;whiteSpace=wrap;rounded=0;" parent="1" vertex="1">
          <mxGeometry x="1539" y="459" width="60" height="30" as="geometry" />
        </mxCell>
        <mxCell id="6HqGeL1BHz_Gl90MD1Bw-327" value="" style="endArrow=none;html=1;rounded=0;" parent="1" edge="1">
          <mxGeometry width="50" height="50" relative="1" as="geometry">
            <mxPoint x="1415" y="499" as="sourcePoint" />
            <mxPoint x="1599" y="499" as="targetPoint" />
          </mxGeometry>
        </mxCell>
        <mxCell id="6HqGeL1BHz_Gl90MD1Bw-328" value="" style="rounded=0;whiteSpace=wrap;html=1;" parent="1" vertex="1">
          <mxGeometry x="1415" y="500" width="184" height="48" as="geometry" />
        </mxCell>
        <mxCell id="6HqGeL1BHz_Gl90MD1Bw-329" value="img" style="rounded=0;whiteSpace=wrap;html=1;" parent="1" vertex="1">
          <mxGeometry x="1416" y="500" width="47" height="47" as="geometry" />
        </mxCell>
        <mxCell id="6HqGeL1BHz_Gl90MD1Bw-330" value="Lorem" style="text;html=1;align=center;verticalAlign=middle;whiteSpace=wrap;rounded=0;" parent="1" vertex="1">
          <mxGeometry x="1463" y="500" width="60" height="30" as="geometry" />
        </mxCell>
        <mxCell id="6HqGeL1BHz_Gl90MD1Bw-331" value="&lt;font style=&quot;font-size: 10px;&quot;&gt;img&lt;/font&gt;" style="rounded=0;whiteSpace=wrap;html=1;" parent="1" vertex="1">
          <mxGeometry x="1467" y="528" width="23" height="19" as="geometry" />
        </mxCell>
        <mxCell id="6HqGeL1BHz_Gl90MD1Bw-332" value="&lt;font style=&quot;font-size: 10px;&quot;&gt;Lorem&lt;/font&gt;" style="text;html=1;align=center;verticalAlign=middle;whiteSpace=wrap;rounded=0;" parent="1" vertex="1">
          <mxGeometry x="1484" y="526" width="46" height="22" as="geometry" />
        </mxCell>
        <mxCell id="6HqGeL1BHz_Gl90MD1Bw-333" value="Lorem" style="text;html=1;align=center;verticalAlign=middle;whiteSpace=wrap;rounded=0;" parent="1" vertex="1">
          <mxGeometry x="1539" y="509" width="60" height="30" as="geometry" />
        </mxCell>
        <mxCell id="6HqGeL1BHz_Gl90MD1Bw-334" value="" style="endArrow=none;html=1;rounded=0;" parent="1" edge="1">
          <mxGeometry width="50" height="50" relative="1" as="geometry">
            <mxPoint x="1415" y="549" as="sourcePoint" />
            <mxPoint x="1599" y="549" as="targetPoint" />
          </mxGeometry>
        </mxCell>
        <mxCell id="6HqGeL1BHz_Gl90MD1Bw-336" value="" style="rounded=0;whiteSpace=wrap;html=1;strokeWidth=2;" parent="1" vertex="1">
          <mxGeometry x="1418" y="120" width="30" height="30" as="geometry" />
        </mxCell>
        <mxCell id="6HqGeL1BHz_Gl90MD1Bw-350" value="" style="endArrow=none;html=1;rounded=0;" parent="1" edge="1">
          <mxGeometry width="50" height="50" relative="1" as="geometry">
            <mxPoint x="1416" y="35" as="sourcePoint" />
            <mxPoint x="1600" y="35" as="targetPoint" />
          </mxGeometry>
        </mxCell>
        <mxCell id="6HqGeL1BHz_Gl90MD1Bw-351" value="" style="endArrow=none;html=1;rounded=0;" parent="1" edge="1">
          <mxGeometry width="50" height="50" relative="1" as="geometry">
            <mxPoint x="1416" y="67" as="sourcePoint" />
            <mxPoint x="1600" y="67" as="targetPoint" />
          </mxGeometry>
        </mxCell>
        <mxCell id="6HqGeL1BHz_Gl90MD1Bw-352" value="" style="rounded=0;whiteSpace=wrap;html=1;" parent="1" vertex="1">
          <mxGeometry x="1416" y="36" width="30" height="30" as="geometry" />
        </mxCell>
        <mxCell id="6HqGeL1BHz_Gl90MD1Bw-353" value="" style="rounded=0;whiteSpace=wrap;html=1;" parent="1" vertex="1">
          <mxGeometry x="1447" y="36" width="30" height="30" as="geometry" />
        </mxCell>
        <mxCell id="6HqGeL1BHz_Gl90MD1Bw-354" value="" style="rounded=0;whiteSpace=wrap;html=1;" parent="1" vertex="1">
          <mxGeometry x="1478" y="36" width="30" height="30" as="geometry" />
        </mxCell>
        <mxCell id="6HqGeL1BHz_Gl90MD1Bw-355" value="" style="rounded=0;whiteSpace=wrap;html=1;" parent="1" vertex="1">
          <mxGeometry x="1509" y="36" width="30" height="30" as="geometry" />
        </mxCell>
        <mxCell id="6HqGeL1BHz_Gl90MD1Bw-356" value="" style="rounded=0;whiteSpace=wrap;html=1;" parent="1" vertex="1">
          <mxGeometry x="1540" y="36" width="30" height="30" as="geometry" />
        </mxCell>
        <mxCell id="6HqGeL1BHz_Gl90MD1Bw-357" value="" style="rounded=0;whiteSpace=wrap;html=1;" parent="1" vertex="1">
          <mxGeometry x="1570" y="36" width="30" height="30" as="geometry" />
        </mxCell>
        <mxCell id="6HqGeL1BHz_Gl90MD1Bw-388" value="" style="endArrow=none;html=1;rounded=0;" parent="1" edge="1">
          <mxGeometry width="50" height="50" relative="1" as="geometry">
            <mxPoint x="1416" y="78" as="sourcePoint" />
            <mxPoint x="1600" y="78" as="targetPoint" />
          </mxGeometry>
        </mxCell>
        <mxCell id="6HqGeL1BHz_Gl90MD1Bw-389" value="" style="endArrow=none;html=1;rounded=0;" parent="1" edge="1">
          <mxGeometry width="50" height="50" relative="1" as="geometry">
            <mxPoint x="1416" y="110" as="sourcePoint" />
            <mxPoint x="1600" y="110" as="targetPoint" />
          </mxGeometry>
        </mxCell>
        <mxCell id="6HqGeL1BHz_Gl90MD1Bw-390" value="" style="rounded=0;whiteSpace=wrap;html=1;" parent="1" vertex="1">
          <mxGeometry x="1416" y="79" width="30" height="30" as="geometry" />
        </mxCell>
        <mxCell id="6HqGeL1BHz_Gl90MD1Bw-391" value="" style="rounded=0;whiteSpace=wrap;html=1;" parent="1" vertex="1">
          <mxGeometry x="1447" y="79" width="30" height="30" as="geometry" />
        </mxCell>
        <mxCell id="6HqGeL1BHz_Gl90MD1Bw-392" value="" style="rounded=0;whiteSpace=wrap;html=1;" parent="1" vertex="1">
          <mxGeometry x="1478" y="79" width="30" height="30" as="geometry" />
        </mxCell>
        <mxCell id="6HqGeL1BHz_Gl90MD1Bw-393" value="" style="rounded=0;whiteSpace=wrap;html=1;" parent="1" vertex="1">
          <mxGeometry x="1509" y="79" width="30" height="30" as="geometry" />
        </mxCell>
        <mxCell id="6HqGeL1BHz_Gl90MD1Bw-394" value="" style="rounded=0;whiteSpace=wrap;html=1;" parent="1" vertex="1">
          <mxGeometry x="1540" y="79" width="30" height="30" as="geometry" />
        </mxCell>
        <mxCell id="6HqGeL1BHz_Gl90MD1Bw-395" value="" style="rounded=0;whiteSpace=wrap;html=1;" parent="1" vertex="1">
          <mxGeometry x="1570" y="79" width="30" height="30" as="geometry" />
        </mxCell>
      </root>
    </mxGraphModel>
  </diagram>
</mxfile>
